:FULLY-SPECIFIED
:FORCE-ALL-JOINTS-BE-3DOF
:DEGREES
611
root 5.62768 16.6713 -3.76132 -0.0474073 56.8225 -9.20424
lfemur -19.4934 25.9718 -23.8432
ltibia 43.4211 -0 0
lfoot -35.0245 26.6286 -0.00159488
ltoes 19.4278 -0 0
rfemur -56.5962 -19.0073 30.0326
rtibia 65.7894 -0 0
rfoot 8.74696 31.4696 -0.00883666
rtoes -4.18361 0 0
lowerback 3.83895 -3.53973 -5.30624
upperback 0.104553 -4.91036 1.24371
thorax -1.52868 -2.41479 4.46224
lowerneck -9.03884 -10.2521 -0.609715
upperneck 16.2008 -14.5983 4.98557
head 6.78919 -6.72283 0.492378
lclavicle 9.15415e-14 8.51934e-15 0
lhumerus -24.8106 -41.5957 98.6499
lradius 60.5157 -0 0
lwrist 22.3337 0 0
lhand -11.5097 0.29653 -0.00188741
lfingers 7.12502 0 0
lthumb 16.649 32.031 -0.00159486
rclavicle 9.15415e-14 8.51934e-15 0
rhumerus 23.8665 4.02195 -76.2112
rradius 122.462 -0 0
rwrist -62.4045 0 0
rhand -29.186 -24.1431 0.00536035
rfingers 7.12502 0 0
rthumb -0.484286 -55.9811 0.0050093
612
root 5.63522 16.6792 -3.75144 0.257395 58.5909 -9.94656
lfemur -20.5066 27.0102 -25.2009
ltibia 45.2791 -0 0
lfoot -36.8015 27.7403 -0.00280495
ltoes 20.8402 -0 0
rfemur -59.0061 -19.8452 31.3917
rtibia 68.4917 -0 0
rfoot 9.23302 32.4073 -0.0157626
rtoes -4.40677 0 0
lowerback 3.9153 -3.74305 -5.5287
upperback 0.0257781 -5.18455 1.36152
thorax -1.62538 -2.5477 4.71418
lowerneck -9.61815 -10.7578 -0.580429
upperneck 17.16 -15.3151 5.20803
head 7.1828 -7.05686 0.493351
lclavicle 8.59767e-14 6.70188e-15 0
lhumerus -26.7444 -41.5903 102.585
lradius 63.4694 -0 0
lwrist 23.5151 0 0
lhand -12.1228 0.262523 -0.00395372
lfingers 7.12502 0 0
lthumb 17.5855 33.6451 -0.00327142
rclavicle 8.59767e-14 6.70188e-15 0
rhumerus 24.6191 4.07746 -78.6735
rradius 124.274 -0 0
rwrist -64.8834 0 0
rhand -30.8146 -25.5509 0.00913649
rfingers 7.12502 0 0
rthumb -0.603374 -58.5888 0.00836016
613
root 5.64276 16.687 -3.74157 0.49779 59.4923 -10.4074
lfemur -21.1334 27.6769 -26.056
ltibia 46.3803 -0 0
lfoot -37.9001 28.4422 -0.00365499
ltoes 21.8094 -0 0
rfemur -60.4518 -20.3611 32.2431
rtibia 70.1074 -0 0
rfoot 9.53648 32.9933 -0.0206899
rtoes -4.50481 0 0
lowerback 3.94582 -3.87795 -5.66061
upperback -0.038312 -5.36574 1.43801
thorax -1.69074 -2.6353 4.87025
lowerneck -9.99808 -11.0584 -0.545568
upperneck 17.7802 -15.743 5.33567
head 7.43558 -7.25596 0.488141
lclavicle 8.04119e-14 4.88441e-15 0
lhumerus -28.0066 -41.5896 104.883
lradius 65.2815 -0 0
lwrist 24.238 0 0
lhand -12.4807 0.241573 -0.00611716
lfingers 7.12502 0 0
lthumb 18.1993 34.6455 -0.00497527
rclavicle 8.04119e-14 4.88441e-15 0
rhumerus 25.051 4.07828 -80.0874
rradius 125.226 -0 0
rwrist -66.4062 0 0
rhand -31.8408 -26.4414 0.0114682
rfingers 7.12502 0 0
rthumb -0.691567 -60.1723 0.0103504
614
root 5.65029 16.6948 -3.73169 0.66318 59.6652 -10.5838
lfemur -21.4052 28.0236 -26.4503
ltibia 46.8238 -0 0
lfoot -38.3959 28.7772 -0.00416798
ltoes 22.3674 -0 0
rfemur -61.0841 -20.5978 32.6389
rtibia 70.8322 -0 0
rfoot 9.67026 33.271 -0.0235635
rtoes -4.48785 0 0
lowerback 3.93628 -3.94947 -5.71013
upperback -0.0872314 -5.46081 1.47535
thorax -1.72678 -2.68098 4.93759
lowerneck -10.1922 -11.1712 -0.506925
upperneck 18.0863 -15.9075 5.37664
head 7.55764 -7.33117 0.477831
lclavicle 7.48472e-14 3.06695e-15 0
lhumerus -28.5999 -41.6595 105.95
lradius 66.1421 -0 0
lwrist 24.5445 0 0
lhand -12.6042 0.233666 -0.00831641
lfingers 7.12502 0 0
lthumb 18.5168 35.0977 -0.00667609
rclavicle 7.48472e-14 3.06695e-15 0
rhumerus 25.1955 4.03568 -80.664
rradius 125.558 -0 0
rwrist -67.1378 0 0
rhand -32.324 -26.8621 0.0125383
rfingers 7.12502 0 0
rthumb -0.749525 -60.8926 0.0112424
615
root 5.65783 16.7027 -3.72181 0.755059 59.2187 -10.5029
lfemur -21.3637 28.0965 -26.4381
ltibia 46.7025 -0 0
lfoot -38.3687 28.7916 -0.00436406
ltoes 22.5594 -0 0
rfemur -61.0286 -20.5956 32.6373
rtibia 70.8142 -0 0
rfoot 9.65299 33.281 -0.0243491
rtoes -4.37044 0 0
lowerback 3.89252 -3.96468 -5.6875
upperback -0.121749 -5.47936 1.47756
thorax -1.7366 -2.68945 4.92637
lowerneck -10.2209 -11.1187 -0.465962
upperneck 18.1136 -15.8407 5.34181
head 7.56353 -7.29732 0.463471
lclavicle 6.92824e-14 1.24949e-15 0
lhumerus -28.5775 -41.8169 106.035
lradius 66.204 -0 0
lwrist 24.486 0 0
lhand -12.5212 0.237769 -0.0105075
lfingers 7.12502 0 0
lthumb 18.5725 35.0731 -0.00835868
rclavicle 6.92824e-14 1.24949e-15 0
rhumerus 25.0876 3.95616 -80.5494
rradius 125.397 -0 0
rwrist -67.2059 0 0
rhand -32.3326 -26.8714 0.0125501
rfingers 7.12502 0 0
rthumb -0.779774 -60.8843 0.0112524
616
root 5.66537 16.7105 -3.71193 0.78413 58.2419 -10.2127
lfemur -21.0571 27.9369 -26.0819
ltibia 46.1032 -0 0
lfoot -37.8992 28.5336 -0.00426073
ltoes 22.4388 -0 0
rfemur -60.391 -20.3919 32.2998
rtibia 70.1676 -0 0
rfoot 9.50712 33.062 -0.0230274
rtoes -4.16983 0 0
lowerback 3.82035 -3.93198 -5.60426
upperback -0.14352 -5.43283 1.44988
thorax -1.72399 -2.66625 4.84878
lowerneck -10.1092 -10.9272 -0.423852
upperneck 17.9037 -15.5789 5.24376
head 7.47076 -7.17169 0.44606
lclavicle 6.37176e-14 -5.67971e-16 0
lhumerus -28.0291 -42.0563 105.287
lradius 65.5914 -0 0
lwrist 24.1198 0 0
lhand -12.2648 0.252166 -0.0126609
lfingers 7.12502 0 0
lthumb 18.4059 34.6453 -0.0100165
rclavicle 6.37176e-14 -5.67971e-16 0
rhumerus 24.7634 3.84348 -79.8483
rradius 124.811 -0 0
rwrist -66.7104 0 0
rhand -31.9395 -26.5337 0.0117159
rfingers 7.12502 0 0
rthumb -0.786126 -60.2605 0.0105612
617
root 5.67291 16.7183 -3.70205 0.766299 56.8144 -9.77056
lfemur -20.5375 27.5832 -25.4483
ltibia 45.1094 -0 0
lfoot -37.0688 28.0524 -0.00387379
ltoes 22.0636 -0 0
rfemur -59.2659 -20.023 31.6893
rtibia 68.9871 -0 0
rfoot 9.25725 32.6517 -0.019593
rtoes -3.9047 0 0
lowerback 3.72552 -3.86056 -5.47269
upperback -0.154769 -5.33372 1.39829
thorax -1.6932 -2.61748 4.71815
lowerneck -9.88471 -10.6247 -0.381517
upperneck 17.5022 -15.1609 5.09595
head 7.29858 -6.97291 0.426532
lclavicle 5.81528e-14 -2.38543e-15 0
lhumerus -27.0663 -42.3597 103.797
lradius 64.4116 -0 0
lwrist 23.5059 0 0
lhand -11.8701 0.274746 -0.0147589
lfingers 7.12502 0 0
lthumb 18.0596 33.889 -0.0116472
rclavicle 5.81528e-14 -2.38543e-15 0
rhumerus 24.2597 3.70006 -78.6415
rradius 123.829 -0 0
rwrist -65.7359 0 0
rhand -31.22 -25.9173 0.0102502
rfingers 7.12502 0 0
rthumb -0.773179 -59.1226 0.00932858
618
root 5.68045 16.7262 -3.69218 0.718926 55.0146 -9.23337
lfemur -19.8587 27.0733 -24.6066
ltibia 43.8045 -0 0
lfoot -35.9596 27.3979 -0.0032185
ltoes 21.4944 -0 0
rfemur -57.745 -19.5243 30.87
rtibia 67.3613 -0 0
rfoot 8.92892 32.0877 -0.0140563
rtoes -3.59393 0 0
lowerback 3.61364 -3.75995 -5.30526
upperback -0.15803 -5.19503 1.32906
thorax -1.64866 -2.54945 4.5482
lowerneck -9.57601 -10.2401 -0.339662
upperneck 16.9561 -14.6265 4.91207
head 7.06694 -6.72006 0.40575
lclavicle 5.2588e-14 -4.2029e-15 0
lhumerus -25.81 -42.6998 101.628
lradius 62.7666 -0 0
lwrist 22.7062 0 0
lhand -11.3736 0.303244 -0.0167928
lfingers 7.12502 0 0
lthumb 17.5774 32.8804 -0.0132508
rclavicle 5.2588e-14 -4.2029e-15 0
rhumerus 23.6135 3.52797 -77.001
rradius 122.464 -0 0
rwrist -64.3605 0 0
rhand -30.251 -25.0917 0.00836614
rfingers 7.12502 0 0
rthumb -0.745909 -57.5684 0.00770785
619
root 5.68799 16.734 -3.6823 0.658184 52.9265 -8.65156
lfemur -19.0742 26.4463 -23.6259
ltibia 42.2742 -0 0
lfoot -34.6551 26.6204 -0.0023107
ltoes 20.7921 -0 0
rfemur -55.9239 -18.9324 29.9063
rtibia 65.3827 -0 0
rfoot 8.54744 31.4079 -0.0064466
rtoes -3.25566 0 0
lowerback 3.49012 -3.63969 -5.11426
upperback -0.155936 -5.02969 1.24837
thorax -1.5948 -2.46843 4.35248
lowerneck -9.21166 -9.80157 -0.298797
upperneck 16.3123 -14.0149 4.70544
head 6.79562 -6.4319 0.384494
lclavicle 4.70232e-14 -6.02036e-15 0
lhumerus -24.3791 -43.0409 98.8418
lradius 60.763 -0 0
lwrist 21.7821 0 0
lhand -10.811 0.335446 -0.0187611
lfingers 7.12502 0 0
lthumb 17.0034 31.6962 -0.0148273
rclavicle 4.70232e-14 -6.02036e-15 0
rhumerus 22.8622 3.32987 -75.0021
rradius 120.722 -0 0
rwrist -62.6655 0 0
rhand -29.1101 -24.1267 0.00627105
rfingers 7.12502 0 0
rthumb -0.70934 -55.6999 0.00585516
620
root 5.69553 16.7418 -3.67242 0.597684 50.6435 -8.06599
lfemur -18.2357 25.7436 -22.5736
ltibia 40.6073 -0 0
lfoot -33.2397 25.77 -0.00116769
ltoes 20.0168 -0 0
rfemur -53.9063 -18.285 28.8621
rtibia 63.1559 -0 0
rfoot 8.13711 30.6511 0.00318494
rtoes -2.90662 0 0
lowerback 3.36019 -3.50901 -4.91146
upperback -0.151071 -4.85025 1.16211
thorax -1.53593 -2.38054 4.14395
lowerneck -8.81908 -9.33632 -0.259266
upperneck 15.6163 -13.3641 4.48865
head 6.50366 -6.12636 0.363464
lclavicle 4.14584e-14 -7.83782e-15 0
lhumerus -22.8827 -43.3426 95.5274
lradius 58.5185 -0 0
lwrist 20.7937 0 0
lhand -10.2162 0.369334 -0.0206673
lfingers 7.12502 0 0
lthumb 16.3803 30.4134 -0.0163771
rclavicle 4.14584e-14 -7.83782e-15 0
rhumerus 22.0429 3.10976 -72.7337
rradius 118.614 -0 0
rwrist -60.7408 0 0
rhand -27.8745 -23.0909 0.00416234
rfingers 7.12502 0 0
rthumb -0.668298 -53.6279 0.00393415
